<?xml version="1.0" encoding="UTF-8" standalone="no"?>
<!-- Created with Inkscape (http://www.inkscape.org/) -->

<svg
   xmlns:dc="http://purl.org/dc/elements/1.1/"
   xmlns:cc="http://creativecommons.org/ns#"
   xmlns:rdf="http://www.w3.org/1999/02/22-rdf-syntax-ns#"
   xmlns:svg="http://www.w3.org/2000/svg"
   xmlns="http://www.w3.org/2000/svg"
   xmlns:sodipodi="http://sodipodi.sourceforge.net/DTD/sodipodi-0.dtd"
   xmlns:inkscape="http://www.inkscape.org/namespaces/inkscape"
   width="216.52827mm"
   height="65.181328mm"
   viewBox="0 0 767.22617 230.95746"
   id="svg3389"
   version="1.1"
   inkscape:version="0.91 r13725"
   sodipodi:docname="artivity-white.svg">
  <defs
     id="defs3391" />
  <sodipodi:namedview
     id="base"
     pagecolor="#ffffff"
     bordercolor="#666666"
     borderopacity="1.0"
     inkscape:pageopacity="0.0"
     inkscape:pageshadow="2"
     inkscape:zoom="0.7"
     inkscape:cx="156.8541"
     inkscape:cy="193.10289"
     inkscape:document-units="px"
     inkscape:current-layer="layer1"
     showgrid="false"
     fit-margin-top="0"
     fit-margin-left="0"
     fit-margin-right="0"
     fit-margin-bottom="0"
     inkscape:window-width="1920"
     inkscape:window-height="1017"
     inkscape:window-x="-8"
     inkscape:window-y="-8"
     inkscape:window-maximized="1"
     showguides="true"
     inkscape:guide-bbox="true" />
  <metadata
     id="metadata3394">
    <rdf:RDF>
      <cc:Work
         rdf:about="">
        <dc:format>image/svg+xml</dc:format>
        <dc:type
           rdf:resource="http://purl.org/dc/dcmitype/StillImage" />
        <dc:title></dc:title>
      </cc:Work>
    </rdf:RDF>
  </metadata>
  <g
     inkscape:label="Ebene 1"
     inkscape:groupmode="layer"
     id="layer1"
     transform="translate(716.9794,-417.14263)">
    <path
       style="fill:#ffffff;fill-opacity:1;fill-rule:evenodd;stroke:none;stroke-width:0.5512591px;stroke-linecap:butt;stroke-linejoin:miter;stroke-opacity:1"
       clip-path="none"
       d="M 109.65039 0.27539062 C 31.575991 0.27539062 1.3378906 76.884691 1.3378906 94.900391 C 1.3378906 117.80859 39.400391 107.47274 39.400391 131.93164 C 39.400391 154.00514 0.27539062 165.76029 0.27539062 184.96289 C 0.27539062 191.07519 12.169691 230.68164 80.587891 230.68164 C 158.93459 230.68164 214.30664 174.78464 214.30664 105.11914 C 214.30664 72.472641 195.16189 0.27539062 109.65039 0.27539062 z M 137.13672 44.146484 C 164.51172 44.146484 178.57422 54.646484 178.57422 75.271484 L 178.57422 131.52148 C 178.57422 136.77148 179.88672 139.58398 184.57422 143.89648 L 184.57422 147.08398 L 156.07422 147.08398 C 153.63672 144.08398 153.07422 139.58398 153.07422 134.33398 C 143.88672 143.89648 133.57422 148.77148 122.32422 148.77148 C 105.44922 148.77148 91.574219 139.39648 91.574219 119.70898 C 91.574219 101.33398 101.32422 92.708984 121.38672 89.146484 L 131.88672 87.271484 C 145.01172 85.021484 152.88672 86.146484 152.88672 75.458984 C 152.88672 68.708984 147.82422 65.333984 137.69922 65.333984 C 124.76172 65.333984 120.44922 68.708984 119.13672 79.208984 L 93.824219 79.208984 C 95.511719 55.771484 109.76172 44.146484 137.13672 44.146484 z M 152.88672 99.271484 C 149.88672 100.77148 148.76172 101.14648 141.82422 102.45898 L 132.82422 104.14648 C 121.94922 106.20898 117.82422 109.02148 117.82422 116.70898 C 117.82422 124.20898 123.26172 127.58398 132.07422 127.58398 C 145.38672 127.58398 152.88672 118.95898 152.88672 103.77148 L 152.88672 99.271484 z "
       transform="translate(-716.9794,417.14263)"
       id="path3045" />
    <path
       inkscape:connector-curvature="0"
       id="path3638"
       style="font-style:normal;font-weight:normal;font-size:187.5px;line-height:125%;font-family:sans-serif;letter-spacing:5px;word-spacing:0px;fill:#ffffff;fill-opacity:1;stroke:none;stroke-width:1px;stroke-linecap:butt;stroke-linejoin:miter;stroke-opacity:1"
       d="m -421.90948,488.10223 0,-26.625 c -1.5,-0.1875 -2.4375,-0.1875 -3.1875,-0.1875 -12,0 -22.5,7.875 -28.125,21.5625 l 0,-19.875 -26.25,0 0,101.25 26.25,0 0,-53.8125 c 0,-15.375 7.6875,-23.0625 23.0625,-23.0625 2.8125,0 4.6875,0.1875 8.25,0.75 z" />
    <path
       inkscape:connector-curvature="0"
       id="path3640"
       style="font-style:normal;font-weight:normal;font-size:187.5px;line-height:125%;font-family:sans-serif;letter-spacing:5px;word-spacing:0px;fill:#ffffff;fill-opacity:1;stroke:none;stroke-width:1px;stroke-linecap:butt;stroke-linejoin:miter;stroke-opacity:1"
       d="m -353.3089,564.22723 0,-18.375 c -2.625,0.375 -4.125,0.5625 -6,0.5625 -6.9375,0 -8.625,-2.0625 -8.625,-11.0625 l 0,-52.875 14.625,0 0,-17.4375 -14.625,0 0,-27.1875 -26.25,0 0,27.1875 -12.9375,0 0,17.4375 12.9375,0 0,60 c 0,15.9375 8.4375,22.5 25.6875,22.5 5.8125,0 10.5,-0.5625 15.1875,-0.75 z" />
    <path
       inkscape:connector-curvature="0"
       id="path3642"
       style="font-style:normal;font-weight:normal;font-size:187.5px;line-height:125%;font-family:sans-serif;letter-spacing:5px;word-spacing:0px;fill:#ffffff;fill-opacity:1;stroke:none;stroke-width:1px;stroke-linecap:butt;stroke-linejoin:miter;stroke-opacity:1"
       d="m -303.31183,564.22723 0,-101.25 -26.25,0 0,101.25 26.25,0 z m 0.375,-113.4375 0,-26.25 -26.25,0 0,26.25 26.25,0 z" />
    <path
       inkscape:connector-curvature="0"
       id="path3644"
       style="font-style:normal;font-weight:normal;font-size:187.5px;line-height:125%;font-family:sans-serif;letter-spacing:5px;word-spacing:0px;fill:#ffffff;fill-opacity:1;stroke:none;stroke-width:1px;stroke-linecap:butt;stroke-linejoin:miter;stroke-opacity:1"
       d="m -184.62238,462.97723 -27.75,0 -20.4375,74.0625 -21.9375,-74.0625 -27.75,0 35.4375,101.25 27.5625,0 34.875,-101.25 z" />
    <path
       inkscape:connector-curvature="0"
       id="path3646"
       style="font-style:normal;font-weight:normal;font-size:187.5px;line-height:125%;font-family:sans-serif;letter-spacing:5px;word-spacing:0px;fill:#ffffff;fill-opacity:1;stroke:none;stroke-width:1px;stroke-linecap:butt;stroke-linejoin:miter;stroke-opacity:1"
       d="m -136.93976,564.22723 0,-101.25 -26.25,0 0,101.25 26.25,0 z m 0.375,-113.4375 0,-26.25 -26.25,0 0,26.25 26.25,0 z" />
    <path
       inkscape:connector-curvature="0"
       id="path3648"
       style="font-style:normal;font-weight:normal;font-size:187.5px;line-height:125%;font-family:sans-serif;letter-spacing:5px;word-spacing:0px;fill:#ffffff;fill-opacity:1;stroke:none;stroke-width:1px;stroke-linecap:butt;stroke-linejoin:miter;stroke-opacity:1"
       d="m -62.312805,564.22723 0,-18.375 c -2.625,0.375 -4.125,0.5625 -6,0.5625 -6.9375,0 -8.625,-2.0625 -8.625,-11.0625 l 0,-52.875 14.625,0 0,-17.4375 -14.625,0 0,-27.1875 -26.250005,0 0,27.1875 -12.9375,0 0,17.4375 12.9375,0 0,60 c 0,15.9375 8.437505,22.5 25.687505,22.5 5.8125,0 10.5,-0.5625 15.1875,-0.75 z" />
    <path
       inkscape:connector-curvature="0"
       id="path3650"
       style="font-style:normal;font-weight:normal;font-size:187.5px;line-height:125%;font-family:sans-serif;letter-spacing:5px;word-spacing:0px;fill:#ffffff;fill-opacity:1;stroke:none;stroke-width:1px;stroke-linecap:butt;stroke-linejoin:miter;stroke-opacity:1"
       d="m 49.746765,462.97723 -27,0 -20.9999999,73.6875 -22.3125001,-73.6875 -28.875,0 37.6875,105.5625 0,0.5625 c 0,9.5625 -7.125,16.875 -16.3125,16.875 -2.0625,0 -3.5625,-0.1875 -6.9375,-1.125 l 0,19.6875 c 3.9375,0.5625 6.1875,0.75 9.375,0.75 17.6250001,0 26.8125001,-3.1875 33.7500001,-22.5 L 49.746765,462.97723 Z" />
  </g>
</svg>
