<?xml version="1.0" encoding="UTF-8" standalone="no"?>
<svg
   xmlns:dc="http://purl.org/dc/elements/1.1/"
   xmlns:cc="http://creativecommons.org/ns#"
   xmlns:rdf="http://www.w3.org/1999/02/22-rdf-syntax-ns#"
   xmlns:svg="http://www.w3.org/2000/svg"
   xmlns="http://www.w3.org/2000/svg"
   xmlns:sodipodi="http://sodipodi.sourceforge.net/DTD/sodipodi-0.dtd"
   xmlns:inkscape="http://www.inkscape.org/namespaces/inkscape"
   width="265px"
   viewBox="0 0 265 265"
   version="1.1"
   height="265px"
   id="svg4178"
   inkscape:version="0.91 r13725"
   sodipodi:docname="logo_osx.svg">
  <metadata
     id="metadata4193">
    <rdf:RDF>
      <cc:Work
         rdf:about="">
        <dc:format>image/svg+xml</dc:format>
        <dc:type
           rdf:resource="http://purl.org/dc/dcmitype/StillImage" />
      </cc:Work>
    </rdf:RDF>
  </metadata>
  <sodipodi:namedview
     pagecolor="#ffffff"
     bordercolor="#666666"
     borderopacity="1"
     objecttolerance="10"
     gridtolerance="10"
     guidetolerance="10"
     inkscape:pageopacity="0"
     inkscape:pageshadow="2"
     inkscape:window-width="1920"
     inkscape:window-height="1017"
     id="namedview4191"
     showgrid="false"
     inkscape:zoom="3.5622641"
     inkscape:cx="116.75224"
     inkscape:cy="105.74209"
     inkscape:window-x="-8"
     inkscape:window-y="-8"
     inkscape:window-maximized="1"
     inkscape:current-layer="svg4178" />
  <defs
     id="defs4180">
    <linearGradient
       id="g"
       y1="15%"
       x2="50%"
       x1="50%"
       y2="85%">
      <stop
         stop-color="#58B0E3"
         offset="0"
         id="stop4183" />
      <stop
         stop-color="#F44C26"
         offset="1"
         id="stop4185" />
    </linearGradient>
  </defs>
  <path
     style="fill:#000000"
     d="M 132.5 0 A 132.5 132.5 0 0 0 0 132.5 A 132.5 132.5 0 0 0 132.5 265 A 132.5 132.5 0 0 0 265 132.5 A 132.5 132.5 0 0 0 132.5 0 z M 71.601562 50.939453 L 79.769531 50.939453 L 132.25977 126.9707 L 132.74023 126.9707 L 185.34961 50.939453 L 193.40039 50.939453 L 136.58008 132.74023 L 193.03906 214.06055 L 184.86914 214.06055 L 132.61914 138.26953 L 132.14062 138.26953 L 79.888672 214.06055 L 71.841797 214.06055 L 128.30078 132.74023 L 71.601562 50.939453 z "
     id="circle4187" />
</svg>
