<?xml version="1.0" encoding="UTF-8" standalone="no"?>
<!-- Generator: Adobe Illustrator 15.1.0, SVG Export Plug-In . SVG Version: 6.00 Build 0)  -->

<svg
   xmlns:dc="http://purl.org/dc/elements/1.1/"
   xmlns:cc="http://creativecommons.org/ns#"
   xmlns:rdf="http://www.w3.org/1999/02/22-rdf-syntax-ns#"
   xmlns:svg="http://www.w3.org/2000/svg"
   xmlns="http://www.w3.org/2000/svg"
   xmlns:sodipodi="http://sodipodi.sourceforge.net/DTD/sodipodi-0.dtd"
   xmlns:inkscape="http://www.inkscape.org/namespaces/inkscape"
   version="1.1"
   id="Layer_1"
   x="0px"
   y="0px"
   width="90.652"
   height="90.652"
   viewBox="-88.717 -56.232 90.651998 90.652002"
   enable-background="new -88.717 -56.232 935.434 283.465"
   xml:space="preserve"
   inkscape:version="0.91 r13725"
   sodipodi:docname="logo_ubuntu.svg"><metadata
     id="metadata25"><rdf:RDF><cc:Work
         rdf:about=""><dc:format>image/svg+xml</dc:format><dc:type
           rdf:resource="http://purl.org/dc/dcmitype/StillImage" /><dc:title></dc:title></cc:Work></rdf:RDF></metadata><defs
     id="defs23" /><sodipodi:namedview
     pagecolor="#ffffff"
     bordercolor="#666666"
     borderopacity="1"
     objecttolerance="10"
     gridtolerance="10"
     guidetolerance="10"
     inkscape:pageopacity="0"
     inkscape:pageshadow="2"
     inkscape:window-width="1920"
     inkscape:window-height="1017"
     id="namedview21"
     showgrid="false"
     fit-margin-top="0"
     fit-margin-left="0"
     fit-margin-right="0"
     fit-margin-bottom="0"
     inkscape:zoom="1.2396974"
     inkscape:cx="-188.94416"
     inkscape:cy="-7.1839153"
     inkscape:window-x="-8"
     inkscape:window-y="-8"
     inkscape:window-maximized="1"
     inkscape:current-layer="Layer_1" /><circle
     style="fill:#000000"
     id="circle5"
     r="45.326"
     cy="-10.905998"
     cx="-43.391003" /><path
     style="fill:#ffffff"
     inkscape:connector-curvature="0"
     id="path7"
     d="m -74.210977,-16.958998 c -3.344,0 -6.053,2.709 -6.053,6.053 0,3.3419996 2.709,6.0509996 6.053,6.0509996 3.343,0 6.052,-2.709 6.052,-6.0509996 -0.001,-3.344 -2.71,-6.053 -6.052,-6.053 z m 43.207,27.504 c -2.895,1.672 -3.887,5.371 -2.215,8.264 1.67,2.895 5.369,3.887 8.265,2.215 2.895,-1.67 3.887,-5.369 2.215,-8.264 -1.671,-2.8920004 -5.372,-3.8850004 -8.265,-2.215 z m -30.062,-21.451 c 0,-5.98 2.971,-11.264 7.516,-14.463 l -4.424,-7.41 c -5.295,3.539 -9.233,8.947 -10.871,15.281 1.91,1.559 3.133,3.932 3.133,6.592 0,2.6579996 -1.223,5.0309996 -3.133,6.5899996 1.636,6.336 5.574,11.744 10.871,15.2830004 l 4.424,-7.4120004 c -4.546,-3.19700004 -7.516,-8.48 -7.516,-14.4609996 z m 17.675,-17.678 c 9.234,0 16.812,7.08 17.605,16.109 l 8.623,-0.127 c -0.425,-6.666 -3.337,-12.65 -7.812,-17.051 -2.301,0.869 -4.959,0.736 -7.256,-0.588 -2.301,-1.328 -3.744,-3.568 -4.139,-6 -2.236,-0.617 -4.59,-0.955 -7.023,-0.955 -4.184,0 -8.139,0.982 -11.65,2.721 l 4.205,7.535 c 2.264,-1.052 4.787,-1.644 7.447,-1.644 z m 0,35.3539996 c -2.66,0 -5.184,-0.592 -7.445,-1.645 l -4.204,7.5350004 c 3.512,1.74 7.467,2.723 11.649,2.723 2.435,0 4.787,-0.338 7.023,-0.957 0.395,-2.432 1.838,-4.6700004 4.139,-6.0000004 2.299,-1.326 4.955,-1.457 7.256,-0.588 4.476,-4.4 7.387,-10.385 7.812,-17.051 l -8.625,-0.127 c -0.794,9.03199996 -8.37,16.11 -17.605,16.11 z m 12.385,-39.1309996 c 2.896,1.672 6.595,0.682 8.265,-2.213 1.672,-2.895 0.682,-6.594 -2.213,-8.266 -2.896,-1.67 -6.595,-0.678 -8.267,2.217 -1.67,2.893 -0.677,6.592 2.215,8.262 z" /></svg>